<?xml version="1.0" standalone="no"?>
<!DOCTYPE svg PUBLIC "-//W3C//DTD SVG 20010904//EN"
 "http://www.w3.org/TR/2001/REC-SVG-20010904/DTD/svg10.dtd">
<svg version="1.0" xmlns="http://www.w3.org/2000/svg"
 width="826.000000pt" height="560.000000pt" viewBox="0 0 826.000000 560.000000"
 preserveAspectRatio="xMidYMid meet">

<g transform="translate(0.000000,560.000000) scale(0.100000,-0.100000)"
fill="#000000" stroke="none">
<path d="M0 2800 l0 -2800 4130 0 4130 0 0 2800 0 2800 -4130 0 -4130 0 0
-2800z m1668 1945 c1 -396 3 -794 5 -885 1 -91 2 230 2 713 0 482 3 877 8 877
4 0 7 -397 7 -882 l0 -882 46 49 c25 28 43 44 39 38 -10 -20 0 -15 21 9 19 22
19 22 0 8 -42 -32 -5 16 143 189 84 100 158 178 164 174 6 -4 7 -1 2 6 -8 13
33 64 45 56 4 -3 16 5 26 18 16 18 16 19 2 8 -26 -20 -22 2 5 27 13 12 27 19
32 15 4 -5 5 -3 1 4 -5 9 70 113 103 143 4 3 23 26 44 52 26 33 43 45 55 42
13 -5 14 -4 3 4 -11 8 -5 19 29 56 23 25 46 44 50 41 4 -2 16 5 26 18 l19 22
-22 -19 c-48 -40 -18 4 81 119 74 86 108 119 122 117 15 -2 16 -1 5 7 -11 7
-3 23 43 75 32 36 62 63 67 60 5 -3 8 -1 7 5 -3 12 103 150 115 151 5 0 5 -4
2 -10 -10 -16 0 -12 25 10 13 11 19 20 14 20 -6 0 -15 -5 -22 -12 -18 -18 -14
3 4 24 16 17 18 17 31 0 13 -15 13 -15 3 5 -11 25 -18 15 98 150 36 41 68 70
74 67 7 -4 8 -2 4 4 -3 6 2 16 13 21 28 15 790 15 881 0 66 -11 69 -13 58 -33
-22 -41 -71 -95 -81 -89 -6 3 -7 2 -4 -4 9 -14 -22 -55 -35 -47 -7 4 -8 2 -4
-5 5 -7 -9 -31 -36 -59 -23 -27 -76 -87 -116 -135 -42 -50 -78 -84 -84 -81 -7
5 -8 2 -3 -5 9 -16 -63 -93 -79 -84 -6 3 -8 2 -3 -2 8 -10 -22 -47 -33 -40 -4
3 -7 -1 -6 -8 0 -8 -31 -49 -70 -93 -89 -99 -200 -229 -239 -280 -46 -59 -108
-121 -101 -101 4 11 2 16 -5 12 -6 -4 -8 -13 -5 -21 3 -9 -36 -62 -102 -136
-59 -67 -120 -136 -135 -154 -16 -19 -34 -33 -40 -31 -7 1 -11 -4 -9 -12 3
-16 -47 -73 -58 -66 -4 3 -14 -3 -21 -12 -10 -12 -10 -14 -1 -9 6 4 12 3 12
-1 0 -13 -65 -74 -71 -68 -3 3 -16 -7 -30 -22 -22 -25 -22 -26 -1 -9 12 11 22
15 22 9 0 -12 -55 -65 -62 -58 -2 3 -5 -2 -5 -10 0 -20 -75 -104 -90 -100 -7
3 -10 -2 -6 -12 5 -13 2 -15 -11 -10 -11 4 -15 3 -10 -4 3 -6 -3 -20 -14 -32
-19 -20 -42 -68 -42 -86 0 -5 16 -29 36 -55 19 -25 32 -51 28 -58 -4 -6 -3 -8
4 -4 6 3 50 -41 101 -104 91 -109 111 -140 69 -104 l-23 19 19 -22 c10 -13 22
-20 26 -18 7 5 200 -236 200 -250 0 -3 -5 -3 -12 1 -7 4 -8 3 -4 -5 4 -6 11
-9 16 -6 9 6 34 -25 194 -233 64 -84 113 -158 110 -164 -4 -6 -3 -8 4 -4 6 3
52 -46 109 -119 95 -121 118 -155 94 -141 -7 5 -9 1 -4 -9 4 -12 8 -13 13 -5
9 15 42 -28 33 -44 -3 -6 -3 -8 2 -4 9 9 35 -9 35 -24 0 -6 -8 -4 -17 3 -16
13 -17 12 -4 -3 7 -10 17 -16 21 -13 12 8 43 -33 34 -46 -4 -7 -3 -10 3 -6 6
4 43 -36 82 -88 72 -96 85 -118 54 -94 -16 13 -17 12 -4 -3 7 -10 17 -16 21
-13 4 3 25 -17 46 -43 21 -26 41 -49 44 -52 4 -3 46 -57 93 -121 63 -84 86
-122 81 -135 -4 -14 -3 -15 4 -6 7 11 23 -7 64 -70 l56 -83 -497 -3 -496 -3
-53 58 c-29 31 -50 63 -47 70 2 8 1 12 -4 8 -16 -9 -224 262 -214 278 3 6 1 7
-4 4 -14 -9 -96 100 -87 115 4 6 3 8 -4 4 -14 -8 -75 70 -66 85 4 7 3 9 -4 6
-10 -7 -98 104 -284 356 -48 65 -99 132 -113 149 -14 16 -22 35 -19 40 4 6 2
8 -3 5 -6 -4 -41 33 -79 81 -71 90 -85 110 -65 98 7 -5 9 -1 4 9 -4 11 -8 13
-13 5 -4 -7 -24 11 -50 47 -24 32 -74 97 -112 145 -41 52 -66 92 -62 99 4 7 3
9 -4 5 -11 -6 -103 106 -106 131 -1 7 -6 14 -12 14 -18 1 -34 22 -29 39 3 10
-2 23 -12 31 -15 11 -16 11 -5 -1 6 -8 12 -19 12 -24 -1 -6 -19 9 -40 34 l-40
45 0 -955 c0 -730 -3 -959 -12 -968 -9 -9 -119 -12 -435 -12 -407 0 -423 1
-433 19 -16 30 -14 3993 2 4009 9 9 114 12 433 10 l420 -3 3 -720z m4847 702
c107 -18 118 -20 180 -35 224 -56 351 -117 493 -237 104 -87 142 -126 147
-151 1 -11 8 -18 14 -17 25 6 132 -174 175 -294 24 -70 49 -156 61 -218 3 -16
11 -57 17 -90 7 -34 11 -154 11 -275 0 -186 -3 -228 -22 -310 -12 -52 -24
-105 -27 -118 -7 -36 -63 -171 -95 -232 -31 -59 -85 -128 -75 -97 4 11 2 16
-5 12 -5 -4 -7 -15 -4 -25 8 -24 -141 -184 -162 -176 -8 3 -11 1 -8 -4 8 -12
-86 -81 -103 -75 -7 3 -11 1 -8 -4 14 -22 -128 -91 -294 -144 -235 -73 -379
-87 -928 -87 l-413 0 2 -705 c1 -554 -1 -708 -11 -720 -11 -13 -67 -15 -417
-15 -260 0 -411 4 -424 10 -19 11 -19 44 -19 2008 0 1585 3 2001 13 2011 9 9
199 11 907 8 773 -3 909 -6 995 -20z m-5155 -4826 c0 -351 0 -351 61 -351 31
0 32 -4 23 -62 l-7 -38 -54 0 c-66 0 -108 22 -123 63 -6 18 -10 162 -10 368
l0 339 55 0 55 0 0 -319z m6280 -61 l0 -380 -55 0 -55 0 0 32 0 32 -34 -33
c-27 -26 -44 -33 -89 -38 -151 -16 -245 72 -255 236 -7 127 24 200 111 258 85
57 171 52 240 -14 l27 -27 0 157 0 157 55 0 55 0 0 -380z m-3747 339 c24 -30
21 -66 -8 -94 -45 -46 -118 -23 -131 40 -4 25 0 36 22 59 24 23 34 27 64 22
19 -3 43 -15 53 -27z m-3693 -185 l0 -165 128 163 129 163 71 3 c40 2 72 -1
72 -6 0 -5 -50 -71 -111 -148 -159 -198 -148 -175 -102 -231 21 -27 64 -82 96
-123 31 -41 77 -101 103 -132 l46 -58 -80 0 -80 0 -43 54 c-24 29 -84 106
-134 171 l-90 118 -3 -172 -2 -171 -60 0 -60 0 0 350 0 350 60 0 60 0 0 -166z
m4121 156 c94 -18 162 -79 184 -166 25 -100 -21 -205 -114 -258 -49 -27 -64
-30 -143 -31 l-88 0 0 -117 0 -118 -60 0 -60 0 0 350 0 350 114 0 c62 0 138
-5 167 -10z m2759 -45 l0 -55 -150 0 -150 0 0 -90 0 -90 139 0 139 0 4 -51 c1
-28 1 -53 -1 -55 -2 -2 -67 -4 -143 -4 l-138 0 0 -95 0 -95 155 0 155 0 0 -55
0 -55 -215 0 -215 0 0 350 0 350 210 0 210 0 0 -55z m-3550 -60 l0 -65 65 0
65 0 0 -51 0 -51 -65 4 -65 3 0 -147 c0 -138 2 -150 21 -169 18 -18 29 -21 74
-15 l53 6 10 -40 c13 -53 1 -62 -95 -68 -61 -4 -83 -1 -109 13 -54 29 -64 70
-64 258 l0 163 -40 -4 -40 -4 0 51 0 51 40 0 40 0 0 59 c0 66 2 68 73 70 l37
1 0 -65z m1780 -2 l0 -68 65 3 65 4 0 -52 0 -52 -65 4 -65 3 0 -152 c0 -152 0
-153 25 -169 19 -12 37 -15 69 -11 43 6 45 5 55 -25 6 -17 11 -36 11 -42 0
-33 -157 -49 -210 -21 -50 26 -55 46 -60 240 l-5 180 -37 -3 -38 -4 0 51 0 51
41 0 41 0 -4 60 c-3 59 -3 59 27 63 89 11 85 15 85 -60z m-4288 -80 c62 -36
73 -70 76 -238 4 -149 10 -175 41 -175 13 0 16 -10 15 -47 l-1 -48 -50 -3
c-55 -3 -103 24 -103 59 0 25 -2 24 -39 -10 -41 -39 -92 -54 -154 -48 -43 4
-56 10 -89 45 -33 36 -38 48 -38 88 0 115 59 159 243 179 l57 6 0 35 c0 81
-103 115 -160 54 -32 -34 -31 -34 -82 -19 l-38 10 15 37 c21 48 43 70 91 88
52 19 173 12 216 -13z m809 1 c67 -40 74 -59 77 -232 4 -159 9 -182 43 -182
16 0 19 -8 19 -50 l0 -50 -54 0 c-60 0 -106 27 -106 63 0 20 -1 20 -27 -5 -43
-39 -87 -58 -140 -58 -85 0 -146 55 -148 134 -4 116 55 160 246 182 l56 6 -4
36 c-2 20 -14 47 -25 59 -39 41 -133 24 -150 -27 -4 -13 -63 -5 -89 10 -12 8
-10 16 9 52 25 48 50 68 102 79 56 13 156 3 191 -17z m1332 1 c62 -29 77 -76
77 -239 0 -143 7 -176 40 -176 17 0 20 -7 20 -50 l0 -50 -55 0 c-46 0 -60 4
-80 25 -14 13 -25 32 -25 41 0 13 -5 11 -25 -10 -50 -54 -137 -71 -209 -41
-110 46 -104 222 10 270 28 11 158 35 195 35 5 0 9 18 9 39 0 31 -6 44 -26 60
-43 34 -126 23 -139 -18 -7 -24 -35 -27 -77 -8 l-27 12 18 40 c19 43 56 73
106 86 46 12 147 4 188 -16z m2682 -22 c-13 -90 -14 -94 -44 -86 -44 12 -72 6
-98 -19 -34 -34 -42 -82 -43 -240 l0 -138 -55 0 -54 0 -3 254 c-3 287 -10 266
76 266 38 0 38 0 34 -35 -2 -19 -2 -35 -1 -35 2 0 14 11 26 25 25 29 86 54
136 55 l33 0 -7 -47z m341 32 c29 -8 62 -28 79 -45 l30 -31 5 -162 c3 -89 9
-168 13 -175 5 -6 17 -12 28 -12 16 0 19 -7 19 -50 l0 -50 -55 0 c-46 0 -60 4
-80 25 -14 13 -25 31 -25 39 0 11 -8 8 -27 -11 -83 -77 -223 -68 -265 17 -55
109 13 218 146 234 138 17 136 17 136 43 0 36 -26 80 -52 87 -53 14 -86 7
-112 -25 -23 -27 -31 -30 -59 -25 -55 11 -61 18 -44 57 37 87 141 120 263 84z
m-4037 -32 c52 -204 71 -285 71 -302 0 -37 16 -22 28 27 7 26 29 105 50 177
l38 130 59 0 59 0 12 -45 c67 -249 104 -351 104 -292 0 10 16 74 35 143 20 68
40 141 46 162 l10 37 65 0 c49 0 65 -3 61 -12 -2 -7 -23 -74 -47 -148 -23 -74
-58 -186 -77 -247 l-36 -113 -66 0 -66 0 -50 177 -49 176 -28 -89 c-14 -49
-38 -128 -53 -177 l-26 -87 -64 0 -64 0 -21 71 c-12 40 -23 79 -26 88 -4 21
-88 309 -98 339 -7 21 -5 22 58 22 l65 0 10 -37z m1741 -223 l0 -260 -57 0
-58 0 3 260 3 260 54 0 55 0 0 -260z m822 74 l3 -186 28 -24 c35 -30 79 -31
119 -3 50 36 58 71 58 244 l0 156 58 -3 57 -3 3 -257 2 -258 -60 0 -60 0 0 36
0 37 -20 -25 c-68 -88 -259 -71 -289 24 -13 44 -13 46 -12 261 l1 187 54 0 55
0 3 -186z m3169 24 c1 -192 3 -206 33 -236 44 -44 116 -25 156 41 18 28 20 51
20 195 l0 162 60 0 60 0 0 -260 0 -260 -61 0 -61 0 4 35 c5 42 2 43 -24 10
-30 -38 -71 -55 -133 -55 -69 0 -123 26 -150 72 -18 29 -20 54 -23 231 -2 109
-1 204 2 212 4 11 21 15 61 15 l55 0 1 -162z"/>
<path d="M4041 5446 c2 -2 18 -6 34 -10 22 -5 26 -4 15 4 -14 9 -59 15 -49 6z"/>
<path d="M4118 5433 c7 -3 16 -2 19 1 4 3 -2 6 -13 5 -11 0 -14 -3 -6 -6z"/>
<path d="M3159 5393 c-13 -16 -12 -17 4 -4 16 13 21 21 13 21 -2 0 -10 -8 -17
-17z"/>
<path d="M815 3455 c0 -1072 1 -1510 2 -972 2 538 2 1416 0 1950 -1 535 -2 95
-2 -978z"/>
<path d="M3050 5265 c-7 -9 -8 -15 -2 -15 5 0 12 7 16 15 3 8 4 15 2 15 -2 0
-9 -7 -16 -15z"/>
<path d="M3849 5093 c-13 -16 -12 -17 4 -4 16 13 21 21 13 21 -2 0 -10 -8 -17
-17z"/>
<path d="M2699 4853 c-13 -16 -12 -17 4 -4 16 13 21 21 13 21 -2 0 -10 -8 -17
-17z"/>
<path d="M2665 4819 c-4 -6 -5 -12 -2 -15 2 -3 7 2 10 11 7 17 1 20 -8 4z"/>
<path d="M2580 4715 c-7 -9 -8 -15 -2 -15 5 0 12 7 16 15 3 8 4 15 2 15 -2 0
-9 -7 -16 -15z"/>
<path d="M3504 4712 c3 -5 0 -12 -6 -15 -7 -2 -10 -7 -7 -11 3 -4 12 0 18 8 9
11 9 16 0 22 -7 4 -9 3 -5 -4z"/>
<path d="M2451 4566 l-24 -31 28 27 c16 15 27 29 24 31 -2 3 -15 -10 -28 -27z"/>
<path d="M3199 4343 c-13 -16 -12 -17 4 -4 16 13 21 21 13 21 -2 0 -10 -8 -17
-17z"/>
<path d="M2239 4313 c-13 -16 -12 -17 4 -4 9 7 17 15 17 17 0 8 -8 3 -21 -13z"/>
<path d="M2079 4123 c-13 -16 -12 -17 4 -4 9 7 17 15 17 17 0 8 -8 3 -21 -13z"/>
<path d="M1890 3905 c-11 -13 -10 -14 4 -9 9 3 16 10 16 15 0 13 -6 11 -20 -6z"/>
<path d="M2684 3758 l-19 -23 23 19 c21 18 27 26 19 26 -2 0 -12 -10 -23 -22z"/>
<path d="M2550 3564 c0 -10 5 -26 10 -34 8 -11 9 -7 4 15 -8 37 -14 45 -14 19z"/>
<path d="M2656 3405 c4 -8 11 -15 16 -15 6 0 5 6 -2 15 -7 8 -14 15 -16 15 -2
0 -1 -7 2 -15z"/>
<path d="M1670 2403 c-3 -524 -2 -949 3 -944 4 4 6 432 5 952 l-3 944 -5 -952z"/>
<path d="M2900 3100 c0 -5 5 -10 11 -10 5 0 7 5 4 10 -3 6 -8 10 -11 10 -2 0
-4 -4 -4 -10z"/>
<path d="M2636 2167 c3 -10 9 -15 12 -12 3 3 0 11 -7 18 -10 9 -11 8 -5 -6z"/>
<path d="M3070 1606 c0 -2 8 -10 18 -17 15 -13 16 -12 3 4 -13 16 -21 21 -21
13z"/>
<path d="M3150 1506 c0 -2 8 -10 18 -17 15 -13 16 -12 3 4 -13 16 -21 21 -21
13z"/>
<path d="M3209 1447 c4 -4 218 -6 477 -5 l469 3 -477 5 c-262 3 -474 2 -469
-3z"/>
<path d="M1088 1443 c101 -2 263 -2 360 0 97 1 15 2 -183 2 -198 0 -278 -1
-177 -2z"/>
<path d="M6348 5443 c7 -3 16 -2 19 1 4 3 -2 6 -13 5 -11 0 -14 -3 -6 -6z"/>
<path d="M6448 5433 c6 -2 18 -2 25 0 6 3 1 5 -13 5 -14 0 -19 -2 -12 -5z"/>
<path d="M6508 5423 c12 -2 30 -2 40 0 9 3 -1 5 -23 4 -22 0 -30 -2 -17 -4z"/>
<path d="M4615 3445 c0 -1089 1 -1533 2 -987 2 547 2 1438 0 1980 -1 543 -2
96 -2 -993z"/>
<path d="M6583 5413 c9 -2 23 -2 30 0 6 3 -1 5 -18 5 -16 0 -22 -2 -12 -5z"/>
<path d="M6638 5403 c7 -3 16 -2 19 1 4 3 -2 6 -13 5 -11 0 -14 -3 -6 -6z"/>
<path d="M6848 5343 c7 -3 16 -2 19 1 4 3 -2 6 -13 5 -11 0 -14 -3 -6 -6z"/>
<path d="M7007 5279 c7 -7 15 -10 18 -7 3 3 -2 9 -12 12 -14 6 -15 5 -6 -5z"/>
<path d="M7290 5056 c0 -2 8 -10 18 -17 15 -13 16 -12 3 4 -13 16 -21 21 -21
13z"/>
<path d="M5647 4803 c94 -2 252 -2 350 0 98 1 21 2 -172 2 -192 1 -273 -1
-178 -2z"/>
<path d="M6248 4793 c6 -2 18 -2 25 0 6 3 1 5 -13 5 -14 0 -19 -2 -12 -5z"/>
<path d="M5472 4168 l3 -623 370 0 c323 0 380 2 450 18 119 28 228 84 301 156
77 76 116 150 145 271 20 88 21 105 12 225 -7 84 -18 151 -32 189 -21 61 -73
153 -103 186 -21 22 -23 34 -5 24 8 -5 8 -2 -2 9 -15 18 -26 23 -16 7 14 -22
-13 -7 -55 32 -25 23 -37 38 -27 35 24 -9 21 0 -4 14 -15 8 -19 8 -15 0 10
-15 7 -14 -51 14 -28 13 -96 33 -151 45 -90 18 -137 20 -462 20 l-361 0 3
-622z"/>
<path d="M6308 4783 c7 -3 16 -2 19 1 4 3 -2 6 -13 5 -11 0 -14 -3 -6 -6z"/>
<path d="M6341 4776 c2 -2 18 -6 34 -10 22 -5 26 -4 15 4 -14 9 -59 15 -49 6z"/>
<path d="M5453 4715 c0 -22 2 -30 4 -17 2 12 2 30 0 40 -3 9 -5 -1 -4 -23z"/>
<path d="M7521 4660 c0 -8 4 -24 9 -35 5 -13 9 -14 9 -5 0 8 -4 24 -9 35 -5
13 -9 14 -9 5z"/>
<path d="M5451 4594 c0 -11 3 -14 6 -6 3 7 2 16 -1 19 -3 4 -6 -2 -5 -13z"/>
<path d="M5454 4415 c0 -66 1 -92 3 -57 2 34 2 88 0 120 -2 31 -3 3 -3 -63z"/>
<path d="M7560 4504 c0 -10 5 -26 10 -34 8 -11 9 -7 4 15 -8 37 -14 45 -14 19z"/>
<path d="M7570 4435 c0 -8 4 -15 10 -15 5 0 7 7 4 15 -4 8 -8 15 -10 15 -2 0
-4 -7 -4 -15z"/>
<path d="M6736 4395 c4 -8 8 -15 10 -15 2 0 4 7 4 15 0 8 -4 15 -10 15 -5 0
-7 -7 -4 -15z"/>
<path d="M7582 4385 c0 -16 2 -22 5 -12 2 9 2 23 0 30 -3 6 -5 -1 -5 -18z"/>
<path d="M6755 4340 c4 -19 11 -39 16 -44 4 -5 3 8 -2 30 -14 50 -24 60 -14
14z"/>
<path d="M7587 4309 c4 -13 8 -18 11 -10 2 7 -1 18 -6 23 -8 8 -9 4 -5 -13z"/>
<path d="M7591 4264 c0 -11 3 -14 6 -6 3 7 2 16 -1 19 -3 4 -6 -2 -5 -13z"/>
<path d="M5452 4250 c0 -14 2 -19 5 -12 2 6 2 18 0 25 -3 6 -5 1 -5 -13z"/>
<path d="M6773 4140 c0 -41 2 -58 4 -37 2 20 2 54 0 75 -2 20 -4 3 -4 -38z"/>
<path d="M5454 4100 c0 -58 1 -81 3 -52 2 28 2 76 0 105 -2 28 -3 5 -3 -53z"/>
<path d="M6762 4020 c0 -14 2 -19 5 -12 2 6 2 18 0 25 -3 6 -5 1 -5 -13z"/>
<path d="M7593 3995 c0 -22 2 -30 4 -17 2 12 2 30 0 40 -3 9 -5 -1 -4 -23z"/>
<path d="M7581 3904 c0 -11 3 -14 6 -6 3 7 2 16 -1 19 -3 4 -6 -2 -5 -13z"/>
<path d="M5454 3770 c0 -63 1 -89 3 -57 2 31 2 83 0 115 -2 31 -3 5 -3 -58z"/>
<path d="M7561 3784 c0 -11 3 -14 6 -6 3 7 2 16 -1 19 -3 4 -6 -2 -5 -13z"/>
<path d="M7522 3648 c-10 -30 -10 -31 3 -14 13 17 21 46 12 46 -1 0 -8 -15
-15 -32z"/>
<path d="M5452 3625 c0 -16 2 -22 5 -12 2 9 2 23 0 30 -3 6 -5 -1 -5 -18z"/>
<path d="M5451 3574 c0 -11 3 -14 6 -6 3 7 2 16 -1 19 -3 4 -6 -2 -5 -13z"/>
<path d="M6288 3543 c7 -3 16 -2 19 1 4 3 -2 6 -13 5 -11 0 -14 -3 -6 -6z"/>
<path d="M6198 3533 c12 -2 32 -2 45 0 12 2 2 4 -23 4 -25 0 -35 -2 -22 -4z"/>
<path d="M5648 3523 c94 -2 250 -2 345 0 94 1 17 3 -173 3 -190 0 -267 -2
-172 -3z"/>
<path d="M6940 3025 c-14 -8 -20 -14 -14 -15 5 0 19 7 30 15 24 18 16 19 -16
0z"/>
<path d="M6618 2923 c7 -3 16 -2 19 1 4 3 -2 6 -13 5 -11 0 -14 -3 -6 -6z"/>
<path d="M6558 2913 c6 -2 18 -2 25 0 6 3 1 5 -13 5 -14 0 -19 -2 -12 -5z"/>
<path d="M6478 2903 c7 -3 16 -2 19 1 4 3 -2 6 -13 5 -11 0 -14 -3 -6 -6z"/>
<path d="M5900 2890 l-425 -5 420 -3 c258 -1 426 2 435 8 8 5 11 9 5 8 -5 -2
-201 -5 -435 -8z"/>
<path d="M5452 2745 c0 -16 2 -22 5 -12 2 9 2 23 0 30 -3 6 -5 -1 -5 -18z"/>
<path d="M5452 2420 c0 -14 2 -19 5 -12 2 6 2 18 0 25 -3 6 -5 1 -5 -13z"/>
<path d="M5452 2330 c0 -19 2 -27 5 -17 2 9 2 25 0 35 -3 9 -5 1 -5 -18z"/>
<path d="M5453 1965 c0 -33 2 -45 4 -27 2 18 2 45 0 60 -2 15 -4 0 -4 -33z"/>
<path d="M5452 1870 c0 -14 2 -19 5 -12 2 6 2 18 0 25 -3 6 -5 1 -5 -13z"/>
<path d="M5453 1760 c0 -47 2 -66 4 -42 2 23 2 61 0 85 -2 23 -4 4 -4 -43z"/>
<path d="M5453 1605 c0 -27 2 -38 4 -22 2 15 2 37 0 50 -2 12 -4 0 -4 -28z"/>
<path d="M4858 1443 c94 -2 250 -2 345 0 94 1 17 3 -173 3 -190 0 -267 -2
-172 -3z"/>
<path d="M7338 583 c-61 -38 -90 -162 -53 -232 52 -103 175 -107 226 -9 23 44
25 134 5 182 -29 70 -114 98 -178 59z"/>
<path d="M4167 773 c-4 -3 -7 -62 -7 -130 l0 -123 61 0 c111 0 174 53 166 138
-6 59 -44 98 -109 111 -56 12 -102 14 -111 4z"/>
<path d="M876 399 c-74 -17 -98 -67 -55 -110 50 -50 159 9 159 86 0 33 -2 35
-32 34 -18 -1 -51 -5 -72 -10z"/>
<path d="M1684 397 c-39 -8 -73 -39 -74 -68 0 -28 39 -59 76 -59 46 0 101 51
110 102 l6 38 -39 -3 c-22 -1 -58 -6 -79 -10z"/>
<path d="M3025 403 c-66 -10 -100 -84 -53 -117 37 -26 88 -17 126 21 13 13 32
66 32 90 0 13 -40 15 -105 6z"/>
<path d="M6103 401 c-29 -4 -60 -15 -72 -25 -43 -39 -15 -106 43 -106 61 0
116 54 116 115 0 27 2 27 -87 16z"/>
</g>
</svg>
